<?xml version="1.0" encoding="UTF-8"?>
<svg id="Layer_1" data-name="Layer 1" xmlns="http://www.w3.org/2000/svg" xmlns:xlink="http://www.w3.org/1999/xlink" viewBox="0 0 601.45 162.23">
  <defs>
    <style>
      .cls-1 {
        fill: #019966;
      }

      .cls-2 {
        fill: url(#HF_Radial_Gradient_For_White-20);
      }

      .cls-3 {
        fill: url(#HF_Radial_Gradient_For_White-21);
      }

      .cls-4 {
        fill: url(#HF_Radial_Gradient_For_White-23);
      }

      .cls-5 {
        fill: url(#HF_Radial_Gradient_For_White-24);
      }

      .cls-6 {
        fill: url(#HF_Radial_Gradient_For_White-25);
      }

      .cls-7 {
        fill: url(#HF_Radial_Gradient_For_White-22);
      }

      .cls-8 {
        fill: url(#HF_Radial_Gradient_For_White-18);
      }

      .cls-9 {
        fill: url(#HF_Radial_Gradient_For_White-17);
      }

      .cls-10 {
        fill: url(#HF_Radial_Gradient_For_White-16);
      }

      .cls-11 {
        fill: url(#HF_Radial_Gradient_For_White-19);
      }

      .cls-12 {
        fill: url(#HF_Radial_Gradient_For_White-14);
      }

      .cls-13 {
        fill: url(#HF_Radial_Gradient_For_White-13);
      }

      .cls-14 {
        fill: url(#HF_Radial_Gradient_For_White-11);
      }

      .cls-15 {
        fill: url(#HF_Radial_Gradient_For_White-12);
      }

      .cls-16 {
        fill: url(#HF_Radial_Gradient_For_White-15);
      }

      .cls-17 {
        fill: url(#HF_Radial_Gradient_For_White-10);
      }

      .cls-18 {
        fill: url(#HF_Radial_Gradient_For_White-4);
      }

      .cls-19 {
        fill: url(#HF_Radial_Gradient_For_White-7);
      }

      .cls-20 {
        fill: url(#HF_Radial_Gradient_For_White-5);
      }

      .cls-21 {
        fill: url(#HF_Radial_Gradient_For_White-8);
      }

      .cls-22 {
        fill: url(#HF_Radial_Gradient_For_White-6);
      }

      .cls-23 {
        fill: url(#HF_Radial_Gradient_For_White-9);
      }

      .cls-24 {
        fill: url(#HF_Radial_Gradient_For_White-2);
      }

      .cls-25 {
        fill: url(#HF_Radial_Gradient_For_White-3);
      }

      .cls-26 {
        fill: #243269;
      }

      .cls-27 {
        fill: url(#HF_Radial_Gradient_For_White);
      }
    </style>
    <radialGradient id="HF_Radial_Gradient_For_White" data-name="HF Radial Gradient For White" cx="131.35" cy="79.52" fx="131.35" fy="79.52" r="117.29" gradientUnits="userSpaceOnUse">
      <stop offset=".16" stop-color="#019966"/>
      <stop offset="1" stop-color="#2d368f"/>
    </radialGradient>
    <radialGradient id="HF_Radial_Gradient_For_White-2" data-name="HF Radial Gradient For White" cx="131.35" cy="79.52" fx="131.35" fy="79.52" r="117.29" xlink:href="#HF_Radial_Gradient_For_White"/>
    <radialGradient id="HF_Radial_Gradient_For_White-3" data-name="HF Radial Gradient For White" cx="131.35" cy="79.52" fx="131.35" fy="79.52" r="117.29" xlink:href="#HF_Radial_Gradient_For_White"/>
    <radialGradient id="HF_Radial_Gradient_For_White-4" data-name="HF Radial Gradient For White" cx="131.35" cy="79.52" fx="131.35" fy="79.52" r="117.29" xlink:href="#HF_Radial_Gradient_For_White"/>
    <radialGradient id="HF_Radial_Gradient_For_White-5" data-name="HF Radial Gradient For White" cx="131.35" cy="79.52" fx="131.35" fy="79.52" r="117.29" xlink:href="#HF_Radial_Gradient_For_White"/>
    <radialGradient id="HF_Radial_Gradient_For_White-6" data-name="HF Radial Gradient For White" cx="131.35" cy="79.52" fx="131.35" fy="79.52" r="117.29" xlink:href="#HF_Radial_Gradient_For_White"/>
    <radialGradient id="HF_Radial_Gradient_For_White-7" data-name="HF Radial Gradient For White" cx="131.35" fx="131.35" r="117.29" xlink:href="#HF_Radial_Gradient_For_White"/>
    <radialGradient id="HF_Radial_Gradient_For_White-8" data-name="HF Radial Gradient For White" cx="131.35" cy="79.52" fx="131.35" fy="79.52" r="117.29" xlink:href="#HF_Radial_Gradient_For_White"/>
    <radialGradient id="HF_Radial_Gradient_For_White-9" data-name="HF Radial Gradient For White" cx="131.35" fx="131.35" r="117.29" xlink:href="#HF_Radial_Gradient_For_White"/>
    <radialGradient id="HF_Radial_Gradient_For_White-10" data-name="HF Radial Gradient For White" cx="131.35" cy="79.52" fx="131.35" fy="79.52" r="117.29" xlink:href="#HF_Radial_Gradient_For_White"/>
    <radialGradient id="HF_Radial_Gradient_For_White-11" data-name="HF Radial Gradient For White" cx="131.35" fx="131.35" r="117.29" xlink:href="#HF_Radial_Gradient_For_White"/>
    <radialGradient id="HF_Radial_Gradient_For_White-12" data-name="HF Radial Gradient For White" cx="131.35" cy="79.52" fx="131.35" fy="79.52" r="117.29" xlink:href="#HF_Radial_Gradient_For_White"/>
    <radialGradient id="HF_Radial_Gradient_For_White-13" data-name="HF Radial Gradient For White" cx="131.35" cy="79.52" fx="131.35" fy="79.52" r="117.29" xlink:href="#HF_Radial_Gradient_For_White"/>
    <radialGradient id="HF_Radial_Gradient_For_White-14" data-name="HF Radial Gradient For White" cx="131.35" cy="79.52" fx="131.35" fy="79.52" r="117.29" xlink:href="#HF_Radial_Gradient_For_White"/>
    <radialGradient id="HF_Radial_Gradient_For_White-15" data-name="HF Radial Gradient For White" cx="131.35" cy="79.52" fx="131.35" fy="79.52" r="117.29" xlink:href="#HF_Radial_Gradient_For_White"/>
    <radialGradient id="HF_Radial_Gradient_For_White-16" data-name="HF Radial Gradient For White" cx="131.35" cy="79.52" fx="131.35" fy="79.52" r="117.29" xlink:href="#HF_Radial_Gradient_For_White"/>
    <radialGradient id="HF_Radial_Gradient_For_White-17" data-name="HF Radial Gradient For White" cx="131.35" cy="79.52" fx="131.35" fy="79.52" r="117.29" xlink:href="#HF_Radial_Gradient_For_White"/>
    <radialGradient id="HF_Radial_Gradient_For_White-18" data-name="HF Radial Gradient For White" cy="79.52" fy="79.52" r="117.29" xlink:href="#HF_Radial_Gradient_For_White"/>
    <radialGradient id="HF_Radial_Gradient_For_White-19" data-name="HF Radial Gradient For White" cx="131.35" cy="79.52" fx="131.35" fy="79.52" r="117.29" xlink:href="#HF_Radial_Gradient_For_White"/>
    <radialGradient id="HF_Radial_Gradient_For_White-20" data-name="HF Radial Gradient For White" cx="131.35" cy="79.52" fx="131.35" fy="79.52" r="117.29" xlink:href="#HF_Radial_Gradient_For_White"/>
    <radialGradient id="HF_Radial_Gradient_For_White-21" data-name="HF Radial Gradient For White" cx="131.35" cy="79.52" fx="131.35" fy="79.52" r="117.29" xlink:href="#HF_Radial_Gradient_For_White"/>
    <radialGradient id="HF_Radial_Gradient_For_White-22" data-name="HF Radial Gradient For White" cx="131.35" cy="79.52" fx="131.35" fy="79.52" r="117.29" xlink:href="#HF_Radial_Gradient_For_White"/>
    <radialGradient id="HF_Radial_Gradient_For_White-23" data-name="HF Radial Gradient For White" cx="131.35" cy="79.52" fx="131.35" fy="79.52" r="117.29" xlink:href="#HF_Radial_Gradient_For_White"/>
    <radialGradient id="HF_Radial_Gradient_For_White-24" data-name="HF Radial Gradient For White" cx="131.35" cy="79.52" fx="131.35" fy="79.52" r="117.29" xlink:href="#HF_Radial_Gradient_For_White"/>
    <radialGradient id="HF_Radial_Gradient_For_White-25" data-name="HF Radial Gradient For White" cx="131.35" cy="79.52" fx="131.35" fy="79.52" r="117.29" xlink:href="#HF_Radial_Gradient_For_White"/>
  </defs>
  <g>
    <g>
      <path class="cls-27" d="M250.88.23c-1.2-.37-2.47-.33-3.52.35-.03.02-.06.04-.08.06,3.97,5.69,7.46,11.69,10.46,17.97.91-.71,1.75-1.47,2.42-2.35-2.72-5.56-5.81-10.91-9.28-16.02Z"/>
      <path class="cls-24" d="M14.69,4.51c-.98-.46-1.97-.89-2.97-1.3-1.85,2.89-3.58,5.86-5.2,8.9-.05,2.17.08,4.28.46,6.17,2.29-4.76,4.86-9.35,7.71-13.77Z"/>
      <path class="cls-25" d="M11.17,31.52C15.22,20.91,20.68,11.06,27.48,2.08c-.86-.2-1.73-.37-2.6-.52-.39-.06-.76-.11-1.13-.15-6.51,8.86-11.78,18.53-15.74,28.9C3.12,43.1.45,56.38,0,69.95c.1.2.21.39.31.59.45.87.94,1.71,1.47,2.54.48.76,1,1.5,1.55,2.21-.16-15.01,2.47-29.7,7.84-43.76Z"/>
      <path class="cls-18" d="M244.16,8.99c-.06.94-.08,1.88-.17,2.82-.01.13-.03.26-.04.38,2.58,4.25,4.89,8.67,6.92,13.24.15-.36.31-.71.51-1.05.47-.81,1.07-1.52,1.75-2.16-2.52-5.42-5.43-10.63-8.70-15.6-.15.79-.22,1.58-.27,2.38Z"/>
      <path class="cls-20" d="M240.4,17.32c-.98.67-2.04,1.23-3.13,1.72,2.90,5.03,5.4,10.29,7.49,15.77,1.04,2.71,1.96,5.45,2.78,8.22.33-.44.65-.90.95-1.36.68-1.06,1.06-2.23,1.28-3.46-.52-1.56-1.08-3.12-1.67-4.67-2.15-5.64-4.72-11.05-7.70-16.22Z"/>
      <path class="cls-22" d="M19.79,34.82c4.2-11.01,10.05-21.14,17.45-30.23-1.27-.31-2.54-.64-3.80-.97-7.15,9.06-12.84,19.08-16.99,29.93-5.88,15.4-8.31,31.58-7.23,48.11.32,4.90.95,9.75,1.88,14.53.59.28,1.21.55,1.81.83.80.37,1.56.81,2.27,1.32-1.22-5.55-2.03-11.2-2.4-16.91-1.05-16.01,1.31-31.7,7-46.61Z"/>
      <path class="cls-19" d="M227.74,144.16c-1.82,2.35-3.70,4.59-5.76,6.87.25.31.49.64.70.98.36.57.66,1.20,1.17,1.64.11.09.23.17.36.24,2.07-2.28,3.97-4.52,5.81-6.86-.20-1.44-.70-2.82-1.30-4.16-.33.43-.65.86-.99,1.29Z"/>
      <path class="cls-21" d="M225.90,137.22c-.65-1.23-1.32-2.45-2-3.67-1.14,1.65-2.33,3.27-3.56,4.86-1.74,2.24-3.56,4.40-5.57,6.62.93.80,1.96,1.54,2.99,2.29,1.99-2.21,3.80-4.36,5.54-6.61.89-1.15,1.76-2.31,2.60-3.49Z"/>
      <path class="cls-23" d="M231.86,20.92c-1.23.37-2.46.74-3.68,1.16,3.07,5.09,5.68,10.46,7.83,16.08,1.50,3.93,2.75,7.92,3.74,11.96.01-.03.02-.05.03-.08.29-.61.91-.97,1.49-1.32.58-.35,1.15-.74,1.70-1.14-.95-3.63-2.11-7.21-3.46-10.75-2.12-5.54-4.67-10.85-7.65-15.90Z"/>
      <path class="cls-17" d="M28.55,38.16c4.41-11.55,10.81-22.05,19.05-31.28-1.41-.28-2.81-.57-4.21-.88-7.87,9.17-14.02,19.51-18.34,30.82-5.40,14.15-7.64,29.03-6.64,44.23.63,9.69,2.58,19.20,5.76,28.31,1.29.55,2.79.74,4.31.90-3.53-9.44-5.67-19.34-6.33-29.45-.96-14.66,1.20-29.01,6.40-42.65Z"/>
      <path class="cls-14" d="M37.44,41.55c4.63-12.12,11.67-22.96,20.93-32.22.16-.16.32-.31.48-.47-1.59-.24-3.17-.50-4.76-.78-8.92,9.31-15.75,20.09-20.32,32.06-4.92,12.89-6.96,26.45-6.05,40.30.71,10.85,3.23,21.45,7.41,31.45,2.34,1.25,4.37,3.16,6.53,4.77-5.77-11.40-9.19-23.76-10.02-36.48-.87-13.28,1.08-26.28,5.80-38.64Z"/>
      <path class="cls-15" d="M235.71,69.50c.33-1.14.67-2.27,1-3.41-.74-8.86-2.72-17.54-5.93-25.94-2.05-5.37-4.56-10.50-7.51-15.37-1.16,1.44-1.26,3.39-1.48,5.29,2.03,3.68,3.80,7.51,5.32,11.48,4.72,12.36,6.67,25.36,5.80,38.64-.35,5.40-1.17,10.73-2.44,15.95,1.97-1.73,3.82-3.56,5.20-5.77.55-3.28.94-6.59,1.16-9.92.05-.72.08-1.45.12-2.17-.72-1.52-1.49-3.04-1.79-4.61-.26-1.39.14-2.82.54-4.17Z"/>
      <path class="cls-13" d="M220.75,128.22c-.76-1.23-1.53-2.45-2.32-3.66-1.73,2.74-3.60,5.42-5.61,8.01-.63.81-1.27,1.61-1.93,2.40.03.54.07,1.08.10,1.63.08,1.25.16,2.52.50,3.71,1.58-1.79,3.04-3.53,4.43-5.33,1.71-2.20,3.32-4.46,4.83-6.77Z"/>
      <path class="cls-12" d="M221.78,104.49c.23-.31.46-.62.71-.92,2.71-7.64,4.37-15.61,4.90-23.74.82-12.48-1.02-24.69-5.45-36.30-1.02-2.68-2.17-5.29-3.44-7.83-1.22.59-2.66.86-4.07,1.06,1.37,2.67,2.60,5.41,3.68,8.24,4.22,11.05,5.96,22.68,5.19,34.56-1.11,16.98-7.37,33.27-18.10,47.09-.44.57-.89,1.13-1.35,1.69,1.25.63,2.51,1.26,3.76,1.89.28-.36.56-.71.84-1.07,2.90-3.74,5.49-7.66,7.76-11.72.27-4.46,2.91-9.27,5.59-12.97Z"/>
      <path class="cls-16" d="M46.47,45c4.14-10.84,10.44-20.54,18.73-28.83,2.01-2.01,4.10-3.90,6.27-5.67-1.86-.20-3.72-.41-5.57-.65-1.23,1.10-2.43,2.23-3.60,3.41-8.70,8.70-15.32,18.89-19.67,30.27-4.43,11.60-6.26,23.82-5.45,36.30.96,14.69,5.59,28.87,13.49,41.52,1.88.62,3.82,1.06,5.78,1.31-8.94-12.92-14.16-27.72-15.17-43.10-.78-11.89.97-23.51,5.18-34.56Z"/>
      <path class="cls-10" d="M51.06,78.92c-.68-10.47.85-20.71,4.56-30.43,3.64-9.54,9.20-18.09,16.51-25.40,4.47-4.47,9.43-8.29,14.74-11.42-2.41-.12-4.83-.27-7.25-.45-3.72,2.60-7.25,5.55-10.52,8.83-7.74,7.74-13.62,16.79-17.48,26.90-3.93,10.30-5.56,21.15-4.83,32.24,1.03,15.75,6.81,30.88,16.71,43.76,1.81-.02,3.62-.09,5.43-.10-.63-.75-1.22-1.48-1.79-2.22-9.52-12.27-15.07-26.70-16.06-41.72Z"/>
      <path class="cls-9" d="M212.95,46.96c-.86-2.24-1.81-4.43-2.86-6.57-.02.15-.03.29-.06.44-.27,1.62-1.32,2.94-2.60,4.01.54,1.20,1.04,2.42,1.51,3.66,3.71,9.72,5.25,19.96,4.56,30.43-.98,15.02-6.54,29.45-16.06,41.73-2.10,2.70-4.51,5.41-7.59,8.57,1.68.40,3.45.90,5.10.88,2.26-2.41,4.16-4.61,5.88-6.82,10.05-12.95,15.91-28.20,16.95-44.08.73-11.09-.90-21.94-4.83-32.24Z"/>
      <path class="cls-8" d="M208.05,78.57c.63-9.68-.78-19.14-4.21-28.12-.35-.92-.72-1.83-1.11-2.73-1.35.64-2.76,1.16-4.20,1.57.40.91.78,1.83,1.13,2.76,3.20,8.37,4.52,17.20,3.93,26.23-.85,13.04-5.69,25.58-13.99,36.28-3.65,4.71-8.68,9.73-17.23,17.90l-.22.24-5.35,5.29c1.79.78,3.63,1.93,5.41.64,1.86-1.35,1.33-4.15,2.83-5.77,1.01-1.09,2.21-1.89,3.61-2.34.99-.32,2.04-.65,3.13-.93,5.07-4.97,8.55-8.68,11.36-12.29,8.85-11.41,14.01-24.80,14.92-38.73Z"/>
      <path class="cls-11" d="M94.67,134.81c-.09-.09-.50-.48-1.95-1.87l-.02-.02-.02-.02h-.02s-.02-.03-.02-.03l-.02-.02h-.01c-8.8-8.41-13.95-13.54-17.64-18.30-8.30-10.70-13.14-23.24-13.99-36.28-.59-9.03.73-17.86,3.93-26.23,3.14-8.23,7.93-15.60,14.25-21.91,9.08-9.08,20.43-15.04,32.78-17.37-4.74-.24-9.69-.79-11.56-.76-.59,0-1.18,0-1.77,0-8.37,3.35-16.05,8.40-22.61,14.96-6.76,6.76-11.90,14.66-15.27,23.48-3.43,8.98-4.85,18.44-4.21,28.12.91,13.93,6.07,27.32,14.92,38.73,1.54,1.98,3.29,4,5.41,6.26,4.93,1.39,9.04,5.33,10.91,10.15.14.36.31.76.51,1.18.41.39.82.79,1.25,1.19h0s.02.03.02.03h0s0,0,0,0h.01s0,.01,0,.01h.02s.02.04.02.04l.02.02.02.02h0c1.32,1.26,1.76,1.68,1.89,1.81l2.83,2.83.12.12c1.57-.15,2.51-1.50,3.51-2.82l-.46-.46-2.86-2.86Z"/>
      <path class="cls-2" d="M189.78,34.98c.12-.95.26-1.91.35-2.87.11-1.21.09-2.46-.39-3.58-.15-.34-.33-.64-.53-.93-.21-.22-.42-.43-.64-.64-1.89-1.89-3.87-3.65-5.93-5.28-3.13-.87-6.39-1.28-9.64-1.22,4.47,2.66,8.63,5.89,12.4,9.67,1.55,1.55,3.01,3.17,4.38,4.85Z"/>
      <path class="cls-3" d="M167.69,128.67l.26-.29.12-.13c8.43-8.04,13.34-12.95,16.78-17.37,7.56-9.75,11.97-21.16,12.75-33,.53-8.16-.66-16.14-3.55-23.70-2.84-7.43-7.17-14.10-12.89-19.81-10.78-10.78-25.10-16.71-40.35-16.71-2.85,0-5.72.21-8.54.64-2.82-.42-5.68-.64-8.54-.64-15.24,0-29.57,5.93-40.35,16.71-5.71,5.71-10.05,12.38-12.89,19.81-2.89,7.56-4.08,15.54-3.55,23.70.77,11.84,5.18,23.25,12.75,32.99,3.46,4.46,8.45,9.43,17.04,17.63h.01s.01.02.01.02h0s0,0,0,0l.02.02.02.02h.01c1.63,1.57,1.98,1.91,2.04,1.97l2.89,2.89,4.62,4.62,2.91,2.91,4.62,4.62,2.91,2.91,4.62,4.62,2.91,2.91,4.62,4.62,1.59,1.59c-.01-.48-.09-.97-.12-1.29-.24-2.04-.19-3.80.10-5.33l-2.88-2.88-2.91-2.91-4.62-4.62-2.91-2.91-4.62-4.62-2.91-2.91-4.62-4.62-2.90-2.90c-.07-.07-.41-.40-2.11-2.02h-.01s-.02-.03-.02-.03l-.02-.02h-.02s-.02-.03-.02-.03c-8.42-8.03-13.3-12.89-16.58-17.11-6.99-9.01-11.06-19.54-11.78-30.44-.49-7.49.60-14.80,3.25-21.74,2.60-6.82,6.58-12.93,11.83-18.18,9.90-9.90,23.05-15.35,37.05-15.35,2.86,0,5.72.23,8.54.69,2.81-.46,5.68-.69,8.54-.69,14,0,27.15,5.45,37.05,15.35,5.25,5.25,9.23,11.36,11.83,18.18,2.65,6.93,3.74,14.25,3.25,21.74-.71,10.90-4.79,21.43-11.78,30.44-3.26,4.20-8.10,9.02-16.42,16.97l-.22.24-.17.13h-.02c-1.57,1.51-1.87,1.81-1.93,1.87l-2.90,2.90-4.62,4.62-2.91,2.91-4.62,4.62-.04.04c3.40-1.59,7.26-3.36,10.92-4.33l4.57-4.57,2.89-2.89c.06-.06.36-.35,1.71-1.64l.30-.23Z"/>
      <path class="cls-7" d="M150.77,130.64l4.62-4.62,2.91-2.91c.14-.14.85-.82,2.09-2h.01s.08-.08.08-.08l.10-.09h0c8.21-7.84,12.95-12.54,16-16.48,6.28-8.09,9.93-17.52,10.57-27.26.44-6.65-.53-13.14-2.88-19.28-2.31-6.05-5.84-11.48-10.51-16.14-8.80-8.80-20.50-13.64-32.94-13.64-2.87,0-5.73.26-8.54.78-2.80-.52-5.67-.78-8.54-.78-12.44,0-24.14,4.85-32.94,13.64-4.67,4.67-8.20,10.10-10.51,16.14-2.35,6.15-3.32,12.63-2.88,19.28.64,9.74,4.29,19.17,10.57,27.26,3.05,3.94,7.79,8.64,16,16.47l.03.03.02.02h0s0,.01,0,.01h.01c1.63,1.57,2.10,2.02,2.20,2.12l2.91,2.91,4.62,4.62,2.91,2.91,4.62,4.62,2.91,2.91,4.62,4.62,3.42,3.42,3.42-3.42,4.62-4.62,2.91-2.91,4.62-4.62,2.91-2.91ZM144.43,130.13l-4.62,4.62-2.91,2.91-4.62,4.62-4.62-4.62-2.91-2.91-4.62-4.62-2.91-2.91-4.62-4.62-2.91-2.91c-.24-.24-1.67-1.61-2.28-2.19l-.02-.02h0s0-.01,0-.01h-.01s-.01-.02-.01-.02h0s0-.01,0-.01c-8.05-7.68-12.66-12.25-15.53-15.95-5.68-7.32-8.99-15.83-9.56-24.61-.39-5.95.48-11.75,2.57-17.24,2.06-5.41,5.23-10.27,9.41-14.45,7.88-7.88,18.37-12.23,29.52-12.23,2.88,0,5.74.29,8.54.87,2.79-.58,5.66-.87,8.54-.87,11.15,0,21.63,4.34,29.52,12.23,4.18,4.18,7.35,9.04,9.41,14.45,2.10,5.49,2.96,11.29,2.57,17.24-.57,8.77-3.88,17.28-9.56,24.61-2.87,3.69-7.48,8.27-15.53,15.95h0s-.10.10-.10.10h0c-.69.67-2,1.92-2.24,2.15l-2.91,2.91-4.62,4.62-2.91,2.91Z"/>
      <path class="cls-4" d="M153.32,113.38h.02c7.85-7.50,12.32-11.93,14.97-15.34,4.99-6.43,7.89-13.88,8.39-21.52.34-5.14-.41-10.14-2.21-14.87-1.78-4.66-4.51-8.86-8.13-12.47-6.82-6.82-15.89-10.58-25.54-10.58-2.90,0-5.76.34-8.54,1.01-2.77-.67-5.64-1.01-8.54-1.01-9.65,0-18.72,3.76-25.54,10.58-3.62,3.62-6.35,7.81-8.13,12.47-1.80,4.73-2.55,9.73-2.21,14.86.50,7.65,3.40,15.09,8.39,21.52,2.65,3.41,7.12,7.84,14.97,15.33h0s0,.01,0,.01h0s0,.01,0,.01h0s.01.02.01.02c.84.80,2.10,2,2.40,2.30l2.91,2.91,4.62,4.62,2.91,2.91,4.62,4.62,3.55,3.55,3.55-3.55,4.62-4.62,2.91-2.91,4.62-4.62,2.91-2.91c.29-.29,1.57-1.51,2.42-2.32h0ZM149.87,109.73h0s0,0,0,0h0c-.97.93-2.18,2.08-2.51,2.41l-2.91,2.91-4.62,4.62-2.91,2.91-4.62,4.62-4.62-4.62-2.91-2.91-4.62-4.62-2.91-2.91c-.34-.34-1.54-1.48-2.50-2.40h0s0,0,0,0h0s0-.01,0-.01c-7.67-7.31-12.01-11.61-14.47-14.77-4.37-5.64-6.92-12.13-7.35-18.77-.29-4.41.35-8.70,1.89-12.74,1.53-4,3.88-7.60,6.99-10.71,5.87-5.87,13.68-9.11,21.99-9.11,2.92,0,5.78.40,8.54,1.18,2.75-.78,5.62-1.18,8.54-1.18,8.31,0,16.11,3.23,21.99,9.11,3.11,3.11,5.47,6.72,6.99,10.71,1.55,4.05,2.18,8.34,1.89,12.75-.43,6.64-2.98,13.14-7.35,18.77-2.46,3.16-6.80,7.46-14.47,14.77Z"/>
      <path class="cls-5" d="M166.25,75.83c.24-3.62-.28-7.14-1.55-10.45-1.25-3.27-3.19-6.24-5.75-8.80-4.84-4.84-11.28-7.51-18.13-7.51-2.95,0-5.82.49-8.54,1.45-2.72-.96-5.58-1.45-8.54-1.45-6.85,0-13.29,2.67-18.13,7.51-2.57,2.57-4.50,5.53-5.75,8.80-1.26,3.31-1.78,6.82-1.55,10.45.36,5.55,2.51,11.01,6.22,15.79,2.23,2.88,6.61,7.20,13.92,14.17h0c1.04,1,2.22,2.13,2.61,2.51l2.91,2.91,4.62,4.62,3.68,3.68,3.68-3.68,4.62-4.62,2.91-2.91c.38-.38,1.52-1.46,2.61-2.51,7.31-6.97,11.69-11.30,13.93-14.17,3.70-4.77,5.86-10.23,6.22-15.79ZM142.51,102.03c-1.17,1.12-2.27,2.17-2.70,2.60l-2.91,2.91-4.62,4.62-4.62-4.62-2.91-2.91c-.43-.43-1.53-1.48-2.70-2.59h0c-6.96-6.64-11.38-11-13.40-13.60-3.07-3.95-4.84-8.42-5.14-12.94-.19-2.87.22-5.64,1.22-8.25.99-2.59,2.53-4.93,4.57-6.98,3.86-3.86,8.99-5.99,14.45-5.99,3,0,5.89.63,8.54,1.85,2.65-1.22,5.54-1.85,8.54-1.85,5.46,0,10.59,2.13,14.45,5.99,2.05,2.05,3.58,4.39,4.57,6.98.99,2.61,1.40,5.38,1.22,8.25-.30,4.51-2.07,8.99-5.14,12.94-2.02,2.60-6.44,6.96-13.41,13.60Z"/>
      <path class="cls-6" d="M151.54,63.98c-2.87-2.87-6.68-4.44-10.73-4.44-3.09,0-6.04.92-8.54,2.62-2.50-1.71-5.45-2.62-8.54-2.62-4.05,0-7.86,1.58-10.73,4.44-1.56,1.56-2.71,3.35-3.43,5.31-.68,1.85-.96,3.82-.82,5.85.23,3.46,1.62,6.94,4.04,10.05,2.01,2.59,7.24,7.63,12.88,13.01,1.25,1.19,2.32,2.21,2.79,2.69l3.81,3.81,3.81-3.81c.47-.47,1.55-1.50,2.79-2.69,5.64-5.38,10.87-10.42,12.88-13.01,2.42-3.12,3.82-6.59,4.04-10.05.13-2.03-.14-4-.82-5.85-.72-1.96-1.88-3.75-3.43-5.31ZM147.5,81.90c-2.57,3.31-13.16,13.12-15.22,15.19-2.07-2.07-12.65-11.88-15.22-15.19-3.33-4.29-4.39-9.95-.23-14.10,1.91-1.91,4.42-2.87,6.92-2.87s5.01.96,6.92,2.87l1.62,1.62,1.62-1.62c1.91-1.91,4.42-2.87,6.92-2.87s5.01.96,6.92,2.87c4.16,4.16,3.10,9.81-.23,14.10Z"/>
    </g>
    <g>
      <g>
        <path class="cls-26" d="M270.36,30.66h9.97v13.46h12.8v-13.46h9.97v35.97h-9.97v-13.67h-12.8v13.67h-9.97V30.66Z"/>
        <path class="cls-26" d="M309.73,30.66h28.93v8.48h-19.07v5.45h17.27v7.86h-17.27v5.7h19.32v8.48h-29.19V30.66Z"/>
        <path class="cls-26" d="M356.61,30.4h9.61l15.31,36.23h-10.69l-2.62-6.42h-13.88l-2.57,6.42h-10.48l15.31-36.23ZM365.35,52.45l-4.01-10.23-4.06,10.23h8.07Z"/>
        <path class="cls-26" d="M384.54,30.66h17.01c5.5,0,9.3,1.44,11.72,3.91,2.11,2.06,3.19,4.83,3.19,8.38v.1c0,5.5-2.93,9.15-7.4,11.05l8.58,12.54h-11.51l-7.25-10.9h-4.37v10.9h-9.97V30.66ZM401.09,47.92c3.39,0,5.35-1.64,5.35-4.27v-.1c0-2.83-2.06-4.27-5.4-4.27h-6.53v8.63h6.58Z"/>
        <path class="cls-26" d="M429.87,39.39h-10.79v-8.74h31.55v8.74h-10.79v27.24h-9.97v-27.24Z"/>
        <path class="cls-26" d="M454.01,30.66h9.97v27.24h17.42v8.74h-27.39V30.66Z"/>
        <path class="cls-26" d="M498.72,30.4h9.61l15.31,36.23h-10.69l-2.62-6.42h-13.88l-2.57,6.42h-10.48l15.31-36.23ZM507.45,52.45l-4.01-10.23-4.06,10.23h8.07Z"/>
        <path class="cls-26" d="M526.65,30.66h9.3l14.8,19.02v-19.02h9.87v35.97h-8.74l-15.37-19.73v19.73h-9.87V30.66Z"/>
        <path class="cls-26" d="M567.28,30.66h13.88c12.85,0,20.3,7.4,20.3,17.78v.1c0,10.38-7.55,18.09-20.5,18.09h-13.67V30.66ZM581.31,57.79c5.96,0,9.92-3.29,9.92-9.1v-.1c0-5.76-3.96-9.1-9.92-9.1h-4.06v18.3h4.06Z"/>
      </g>
      <g>
        <path class="cls-26" d="M270.82,76.15h28.78v8.74h-18.81v6.12h17.01v8.27h-17.01v12.85h-9.97v-35.97Z"/>
        <path class="cls-26" d="M301.79,94.24v-.1c0-10.33,8.33-18.71,19.43-18.71s19.32,8.27,19.32,18.6v.1c0,10.33-8.33,18.71-19.43,18.71s-19.32-8.27-19.32-18.6ZM330.37,94.24v-.1c0-5.19-3.75-9.71-9.25-9.71s-9.1,4.42-9.1,9.61v.1c0,5.19,3.75,9.71,9.2,9.71s9.15-4.42,9.15-9.61Z"/>
        <path class="cls-26" d="M345.43,76.15h17.01c5.5,0,9.3,1.44,11.72,3.91,2.11,2.06,3.19,4.83,3.19,8.38v.1c0,5.5-2.93,9.15-7.4,11.05l8.58,12.54h-11.51l-7.25-10.9h-4.37v10.9h-9.97v-35.97ZM361.98,93.42c3.39,0,5.34-1.64,5.34-4.27v-.1c0-2.83-2.06-4.27-5.4-4.27h-6.53v8.63h6.58Z"/>
        <path class="cls-26" d="M380.13,76.15h10.54l6.27,20.81,6.94-20.92h8.58l6.94,20.92,6.27-20.81h10.33l-12.03,36.23h-8.68l-7.25-20.71-7.19,20.71h-8.69l-12.03-36.23Z"/>
        <path class="cls-26" d="M446.02,75.9h9.61l15.31,36.23h-10.69l-2.62-6.42h-13.88l-2.57,6.42h-10.48l15.31-36.23ZM454.75,97.94l-4.01-10.23-4.06,10.23h8.07Z"/>
        <path class="cls-26" d="M473.95,76.15h17.01c5.5,0,9.3,1.44,11.72,3.91,2.11,2.06,3.19,4.83,3.19,8.38v.1c0,5.5-2.93,9.15-7.4,11.05l8.58,12.54h-11.51l-7.25-10.9h-4.37v10.9h-9.97v-35.97ZM490.49,93.42c3.39,0,5.35-1.64,5.35-4.27v-.1c0-2.83-2.06-4.27-5.4-4.27h-6.53v8.63h6.58Z"/>
        <path class="cls-26" d="M510.92,76.15h13.88c12.85,0,20.3,7.4,20.3,17.78v.1c0,10.38-7.56,18.09-20.51,18.09h-13.67v-35.97ZM524.95,103.29c5.96,0,9.92-3.29,9.92-9.1v-.1c0-5.76-3.96-9.1-9.92-9.10h-4.06v18.3h4.06Z"/>
      </g>
    </g>
  </g>
  <g>
    <path class="cls-1" d="M275.99,129.8l-5.18,11.65h2.76l1.04-2.5h5.4l1.04,2.5h2.83l-5.23-11.65h-2.66ZM275.47,136.91l1.85-4.44,1.85,4.44h-3.69Z"/>
    <polygon class="cls-1" points="295.79 132 299.52 132 299.52 141.45 302.22 141.45 302.22 132 305.95 132 305.95 129.8 295.79 129.8 295.79 132"/>
    <polygon class="cls-1" points="319.03 134.4 313.75 134.4 313.75 129.8 311.04 129.8 311.04 141.45 313.75 141.45 313.75 136.68 319.03 136.68 319.03 141.45 321.73 141.45 321.73 129.8 319.03 129.8 319.03 134.4"/>
    <rect class="cls-1" x="328.14" y="129.8" width="2.71" height="11.65"/>
    <polygon class="cls-1" points="345.27 136.87 339.48 129.8 337.25 129.8 337.25 141.45 339.91 141.45 339.91 134.38 345.7 141.45 347.94 141.45 347.94 129.8 345.27 129.8 345.27 136.87"/>
    <polygon class="cls-1" points="365.18 129.8 362.19 129.8 357.03 135.24 357.03 129.8 354.35 129.8 354.35 141.45 357.03 141.45 357.03 138.49 358.57 136.88 362.32 141.45 365.48 141.45 360.37 135 365.18 129.8"/>
    <rect class="cls-1" x="369.79" y="135.73" width="4.71" height="2.08"/>
    <path class="cls-1" d="M384.03,129.8l-5.18,11.65h2.76l1.04-2.5h5.4l1.04,2.5h2.83l-5.23-11.65h-2.66ZM383.51,136.91l1.85-4.44,1.85,4.44h-3.69Z"/>
    <polygon class="cls-1" points="404.81 136.87 399.01 129.8 396.78 129.8 396.78 141.45 399.45 141.45 399.45 134.38 405.24 141.45 407.47 141.45 407.47 129.8 404.81 129.8 404.81 136.87"/>
    <path class="cls-1" d="M422.52,130.52c-.97-.48-2.08-.72-3.35-.72h-5.29v11.65h5.29c1.26,0,2.38-.24,3.35-.72s1.72-1.16,2.26-2.03c.54-.87.81-1.89.81-3.07s-.27-2.20-.81-3.07c-.55-.87-1.3-1.55-2.26-2.03ZM422.4,137.55c-.32.55-.76.97-1.33,1.27-.57.29-1.25.44-2.02.44h-2.45v-7.26h2.45c.78,0,1.45.15,2.02.44.57.29,1.02.71,1.33,1.26s.47,1.19.47,1.93-.16,1.37-.47,1.92Z"/>
    <rect class="cls-1" x="430.76" y="135.73" width="4.71" height="2.08"/>
    <path class="cls-1" d="M449.99,130.52c-.97-.48-2.08-.72-3.35-.72h-5.29v11.65h5.29c1.26,0,2.38-.24,3.35-.72s1.72-1.16,2.26-2.03c.54-.87.81-1.89.81-3.07s-.27-2.2-.81-3.07c-.55-.87-1.3-1.55-2.26-2.03ZM449.87,137.55c-.32.55-.76.97-1.33,1.27-.57.29-1.25.44-2.02.44h-2.45v-7.26h2.45c.78,0,1.45.15,2.02.44.57.29,1.02.71,1.33,1.26s.47,1.19.47,1.93-.16,1.37-.47,1.92Z"/>
    <path class="cls-1" d="M468.96,131.30c-.58-.54-1.25-.96-2.02-1.26s-1.62-.44-2.54-.44-1.77.15-2.54.45c-.77.3-1.44.72-2.02,1.27-.58.54-1.02,1.18-1.34,1.90-.32.73-.48,1.53-.48,2.41s.16,1.66.48,2.4c.31.73.76,1.37,1.34,1.91.58.55,1.25.97,2.03,1.27.78.3,1.63.45,2.55.45s1.75-.15,2.52-.44c.77-.29,1.45-.71,2.02-1.26.58-.54,1.02-1.19,1.34-1.92.32-.74.47-1.54.47-2.41s-.16-1.68-.47-2.41c-.32-.73-.76-1.37-1.34-1.92ZM467.77,137.13c-.18.45-.44.84-.77,1.18s-.72.6-1.16.78c-.44.18-.92.28-1.44.28s-1.01-.09-1.45-.28c-.44-.18-.83-.44-1.16-.78s-.58-.73-.77-1.18-.28-.95-.28-1.51.09-1.06.28-1.51.44-.84.77-1.18.71-.60,1.16-.78c.44-.18.93-.28,1.45-.28s1,.09,1.44.28c.44.18.83.44,1.16.78s.59.73.77,1.18c.18.45.28.95.28,1.51s-.09,1.06-.28,1.51Z"/>
    <rect class="cls-1" x="475.93" y="135.73" width="4.71" height="2.08"/>
    <polygon class="cls-1" points="485.21 132 488.94 132 488.94 141.45 491.63 141.45 491.63 132 495.36 132 495.36 129.8 485.21 129.8 485.21 132"/>
    <path class="cls-1" d="M504.1,129.8l-5.18,11.65h2.76l1.04-2.5h5.4l1.04,2.5h2.83l-5.23-11.65h-2.66ZM503.58,136.91l1.85-4.44,1.85,4.44h-3.69Z"/>
    <polygon class="cls-1" points="524.88 136.87 519.09 129.8 516.86 129.8 516.86 141.45 519.52 141.45 519.52 134.38 525.31 141.45 527.55 141.45 527.55 129.8 524.88 129.8 524.88 136.87"/>
    <polygon class="cls-1" points="541.93 141.45 545.09 141.45 539.98 135 544.79 129.8 541.8 129.8 536.64 135.24 536.64 129.8 533.96 129.8 533.96 141.45 536.64 141.45 536.64 138.49 538.18 136.88 541.93 141.45"/>
  </g>
</svg>