<svg xmlns="http://www.w3.org/2000/svg" width="149" height="128" viewBox="0 0 149 128"><defs><clipPath id="b9e0a"><path d="M.03.04h148.537v127.958H.03z"/></clipPath></defs><g><g><g><g/><g clip-path="url(#b9e0a)"><path fill="#019966" d="M130.163 36.53L119.64 46.938l1.44 1.466c1.214 1.238 2.356 1.212 3.64-.056l6.773-6.699c.649-.642.98-1.27.985-1.87.005-.587-.303-1.199-.917-1.824l-1.397-1.425"/></g><g clip-path="url(#b9e0a)"><path fill="#019966" d="M145.602 33.209c3.569 4.065 4.342 12.188-.063 16.161l-35.083 31.127a37.335 37.335 0 0 1 1.465 10.344c0 20.488-16.604 37.157-37.013 37.157-20.408 0-37.012-16.669-37.012-37.157 0-3.487.479-6.931 1.423-10.244L3.901 50.58c-4.665-3.736-5.217-10.375-1.274-15.433C20.021 12.836 46.41.04 75.025.04c27.34 0 53.065 12.09 70.577 33.169zM98.24 11.615L82.734 55.019l.562.118c4.002.85 7.192 2.495 10.467 4.348l.443.251 2.085-4.926c-2.14-1.15-4.459-2.193-6.448-2.903l4.965-13.928c1.164.402 2.235.786 3.302 1.238l.486.205 1.92-5.328-.442-.185a58.721 58.721 0 0 0-3.351-1.254l5.118-14.235c2.122.75 4.12 1.55 6.092 2.437l.492.222 1.823-5.096-.425-.19a84.666 84.666 0 0 0-11.135-4.05zm-64.059 7.17l19.372 42.373.485-.308c3.455-2.198 6.696-3.96 10.327-4.93l.492-.13-1.94-4.987c-2.333.681-4.659 1.848-6.57 2.731L50.068 40.05c1.114-.528 2.147-1.004 3.223-1.428l.49-.192-2.331-5.159-.444.177c-1.114.445-2.22.953-3.271 1.45l-6.245-13.77a76.881 76.881 0 0 1 6.055-2.525l.508-.187-2.242-4.925-.435.163a84.651 84.651 0 0 0-10.784 4.91zm9.421 53.141c2.37-3.325 4.537-6.345 7.515-8.618l.402-.308-3.234-4.16-.395.317c-1.842 1.48-3.763 3.263-5.23 4.848L12.383 35.832l-.34.375a85.705 85.705 0 0 0-3.039 3.553l-.297.365L43.271 72.39zm60.668 18.845l-3.873.002c0-1.82-.193-3.594-.552-5.305l3.785-.808a29.792 29.792 0 0 0-.797-2.969 29.87 29.87 0 0 0-1.094-2.878l-3.54 1.582a25.486 25.486 0 0 0-2.66-4.618l3.138-2.288a30.258 30.258 0 0 0-1.932-2.386 29.854 29.854 0 0 0-2.164-2.182l-2.596 2.891a25.36 25.36 0 0 0-4.297-3.133l1.938-3.373a30.371 30.371 0 0 0-5.594-2.5l-1.197 3.699A25.23 25.23 0 0 0 79 65.577l4.765-45.5.342-.07c2.145-.445 2.506-2.394 2.506-2.394l2.799-7.718c.267-1.82-2.008-1.06-2.008-1.06l-1.66 7.148c-.273 1.033-1.208 1.518-1.73 1.713l.1-.958c-.368-.682-.546-1.694-.435-2.798.077-.737.274-1.412.553-1.95.37-.732.639-1.64.744-2.642.26-2.565-.652-4.767-2.054-4.91-1.4-.147-2.746 1.816-3.008 4.384a7.607 7.607 0 0 0 .2 2.738c.151.588.212 1.286.134 2.027-.113 1.1-.492 2.057-.988 2.647l-4.732 45.15c-.427.007-.853.018-1.274.042l-6.285-41.268.313-.154c2.068-1.02 1.927-3.098 1.927-3.098l.834-8.608c-.205-1.924-2.324-.545-2.324-.545l.18 7.72c-.01 1.117-.826 1.855-1.309 2.195l-.152-1c-.557-.594-1.002-1.58-1.176-2.733-.117-.772-.092-1.51.05-2.135.183-.84.224-1.84.067-2.888-.404-2.685-1.914-4.685-3.377-4.465-1.466.222-2.324 2.578-1.918 5.267.157 1.048.493 1.99.918 2.739.307.557.551 1.25.668 2.025.172 1.151.036 2.226-.318 2.963l7.402 48.599c-.549.14-1.093.29-1.628.465l-1.197-3.698c-.959.315-1.914.686-2.855 1.108-.948.421-1.86.884-2.739 1.391l1.94 3.373a25.432 25.432 0 0 0-4.299 3.133l-2.594-2.891a30.334 30.334 0 0 0-4.097 4.566l3.138 2.29a25.437 25.437 0 0 0-2.658 4.616l-3.54-1.582c-.411.927-.776 1.888-1.095 2.872-.32.99-.588 1.979-.8 2.975l3.79.808a25.653 25.653 0 0 0-.554 5.305H45.69c.002 1.014.057 2.04.166 3.069.107 1.035.264 2.049.473 3.045l3.789-.808a25.32 25.32 0 0 0 1.642 5.071l-3.539 1.582c.412.926.88 1.841 1.397 2.737.517.9 1.07 1.763 1.666 2.589l3.136-2.288a25.506 25.506 0 0 0 3.553 3.962l-2.594 2.892a29.553 29.553 0 0 0 2.385 1.932 29.662 29.662 0 0 0 2.57 1.684l1.938-3.372a25.167 25.167 0 0 0 4.852 2.174l-1.198 3.696c.963.312 1.951.576 2.961.79 1.014.218 2.022.38 3.03.49l.404-3.866a25.498 25.498 0 0 0 5.314 0l.405 3.865a29.534 29.534 0 0 0 3.023-.487c1.014-.216 2-.476 2.967-.79l-1.197-3.696a25.061 25.061 0 0 0 4.851-2.175l1.938 3.369a29.115 29.115 0 0 0 2.566-1.678 29.63 29.63 0 0 0 2.389-1.934l-2.592-2.89a25.843 25.843 0 0 0 3.553-3.964l3.137 2.286a29.905 29.905 0 0 0 1.662-2.583c.517-.9.986-1.811 1.4-2.74l-3.54-1.581a25.547 25.547 0 0 0 1.646-5.073l3.785.808c.207-.992.367-2.008.472-3.04.11-1.033.168-2.056.168-3.076zm31.316-56.821c-1.951-2-3.598-3.571-5.184-4.947l-.35-.302-33.33 32.912.489.346a38.195 38.195 0 0 1 3.643 2.902l.352.318 14.412-14.272 1.055 1.074-12.677 16.625.234.33c1.185 1.412 1.858 2.859 2.625 4.046l.36.722 14.02-18.981c.3.033.602.048.901.048h.001c2.732 0 5.516-1.382 8.272-4.108l3.636-3.595c2.385-2.36 3.732-4.66 4.002-6.838.274-2.223-.554-4.337-2.461-6.28z"/></g></g><g><path fill="#019966" d="M65.442 105.608v-1.527l3.388-.296c1.916-.147 2.26-.69 2.26-3.55V86.284c0-2.516 0-4.34-.1-5.424-.098-1.331-.636-1.874-1.718-1.874-.296 0-.491 0-1.425.149l-3.584.492-.443-1.775 1.131-.394 6.629-2.17 5.697-1.873 1.08-.394.836.592V96.49l.05 3.598c.048 2.91.392 3.45 2.306 3.648l3.488.346v1.527H65.441"/></g></g></g></svg>
