<svg xmlns="http://www.w3.org/2000/svg" viewBox="0 0 36 30">
  <g id="mark--q" transform="translate(0.000000, 0.044635)" fill="#7259EF">
    <path d="M31.9092092,21.5851401 C28.3035636,19.0581431 23.7997598,18.262007 19.5521822,19.4015566 L16.2740741,20.2808458 C16.2739439,20.2808458 16.2739439,20.280976 16.2738138,20.280976 C15.3740941,20.5218468 14.4659159,20.5240591 13.6156456,20.3282132 C11.6863363,19.8838188 10.0565866,18.4153003 9.50964965,16.3714765 C9.12771772,14.94499 9.32382382,13.4551301 10.0615315,12.1762112 C10.7991091,10.8974224 11.9903203,9.98247748 13.4152452,9.60015516 C13.8911311,9.47262763 14.374044,9.40964464 14.8537037,9.40964464 C15.8106807,9.40964464 16.7552953,9.6607958 17.6063463,10.1526877 C18.8838338,10.891046 19.7978679,12.0832983 20.1797998,13.5097848 C20.5042142,14.7215566 20.4098699,15.9788739 19.9221421,17.1141291 C20.5448148,16.9837387 21.1708709,16.8892643 21.7974474,16.8295345 C22.1296697,15.6128178 22.136957,14.3250501 21.802002,13.0744995 C21.3041241,11.2142893 20.1122623,9.65949449 18.4462062,8.69653153 C16.78002,7.7336987 14.8384785,7.47799299 12.9806106,7.97639139 C11.1220921,8.47465966 9.56885886,9.66769269 8.60680681,11.3355706 C7.64501502,13.0033183 7.38930931,14.9462913 7.88731732,16.8065015 C8.64155155,19.6242092 10.972963,21.6057007 13.6766767,22.0545195 C14.0603003,22.1182833 14.4513413,22.1513363 14.8465465,22.1513363 C15.4615415,22.1513363 16.0866867,22.0715666 16.7083183,21.9048699 C16.7085786,21.9047397 16.7087087,21.9047397 16.708969,21.9047397 L19.9870771,21.0254505 C23.7534334,20.0156406 27.7481682,20.7212062 30.9461161,22.9624374 C31.0926426,23.0653704 31.2606406,23.1144294 31.4268168,23.1144294 C31.6916316,23.1144294 31.9521522,22.9895045 32.1155956,22.7559209 C32.3815816,22.3756807 32.2891892,21.8513864 31.9092092,21.5851401" id="Fill-14"></path>
    <path d="M21.5283383,26.7841772 L18.2502302,27.6634665 C14.8557858,28.5737267 11.3092192,28.1066897 8.26521522,26.3475906 C5.22134134,24.5883614 3.044004,21.7478809 2.13426426,18.3496627 C1.22465465,14.9510541 1.69143143,11.4016246 3.44883884,8.35462763 C5.20624625,5.30763063 8.04386386,3.12821121 11.4390891,2.21756056 C18.4475075,0.338351351 25.6774074,4.51604905 27.5550551,11.5312342 C28.0707608,13.4579409 28.1450651,15.4238168 27.7892893,17.3330861 C28.3337538,17.4794825 28.8718418,17.6528158 29.4012112,17.8537367 C29.8493794,15.6333263 29.7783283,13.3408238 29.1773874,11.0960791 C27.0599099,3.18546847 18.908038,-1.52719419 11.0043243,0.593666667 C7.17602603,1.62052352 3.975996,4.07803103 1.99437437,7.51398699 C0.0126226226,10.9496827 -0.513753754,14.9526156 0.511931932,18.7845576 C1.53774775,22.6168899 3.99304304,25.8199129 7.42548549,27.8034865 C9.712002,29.1250881 12.2492793,29.7998128 14.8205205,29.7998128 C16.1091992,29.7998128 17.4068569,29.6301231 18.6851251,29.2873604 L21.9632332,28.4080711 C23.7415916,27.9312743 25.6344645,28.3703333 27.0251652,29.583016 C27.374955,29.8877808 27.9052352,29.8516046 28.2101301,29.5014244 C28.5147648,29.1512442 28.4781982,28.6203133 28.1285385,28.3154184 C26.315045,26.7343373 23.8475175,26.1616346 21.5283383,26.7841772" id="Fill-16"></path>
    <path d="M30.9498118,25.5847938 L29.9903624,24.9122813 C29.9893213,24.9115005 29.9878899,24.91098 29.9868488,24.9101992 C29.8482603,24.8067457 29.7065485,24.7091481 29.5643163,24.6127217 C29.4957377,24.5663954 29.4268989,24.5208498 29.3575395,24.4760851 C29.2605926,24.4134925 29.1626046,24.3527217 29.063966,24.2933824 C28.9762583,24.2406797 28.8884204,24.1887578 28.7996717,24.1387878 C28.720032,24.0937628 28.6397417,24.0501692 28.5591912,24.0072262 C28.4492312,23.9486677 28.3386206,23.8911502 28.226969,23.8364955 C28.16802,23.8076066 28.1085506,23.7797588 28.0490811,23.7519109 C27.9151772,23.6893183 27.7806226,23.6282873 27.6445065,23.5712903 C27.6075495,23.5556747 27.5702022,23.5408398 27.5331151,23.5257447 C27.3751371,23.4615906 27.2163784,23.3999089 27.0561882,23.3433023 C27.040963,23.337967 27.0256076,23.3328919 27.0105125,23.3275566 C25.5168789,22.8050841 23.9273393,22.6101491 22.3366286,22.7666957 C22.3016236,22.7702092 22.2666186,22.7758048 22.2316136,22.7794484 C22.0686907,22.7968859 21.9061582,22.816015 21.7437558,22.8407397 C21.631974,22.8577868 21.5205826,22.8801692 21.4090611,22.9007297 C21.3218739,22.9167357 21.2344264,22.9301391 21.1473694,22.9482272 C20.9446266,22.9906496 20.7421441,23.0387978 20.5401822,23.0929319 L17.2620741,23.9720911 C12.2885005,25.3064454 7.154997,22.3403894 5.82194394,17.3603093 C4.48889089,12.3804895 7.45182382,7.24347247 12.4270891,5.90885786 C17.4023544,4.57489389 22.5344264,7.54042943 23.8674795,12.5202492 C24.2427748,13.9231822 24.2841562,15.3712703 24.0067187,16.7641832 C24.5700521,16.7843534 25.1311732,16.8334124 25.6882603,16.9095385 C25.9764985,15.3223413 25.9162482,13.6790581 25.4896817,12.0853544 C23.9171892,6.20984885 17.8611932,2.71064965 11.9923243,4.28496396 C6.12254454,5.85927828 2.62685886,11.9202192 4.19974174,17.7957247 C5.77236436,23.6711001 11.8275796,27.1697788 17.6970991,25.595985 L20.9752072,24.7166957 C23.7649369,23.968968 26.6916937,24.5359449 29.0044965,26.2733123 C29.0086607,26.2763053 29.0130851,26.2782573 29.0171191,26.2811201 C29.0206326,26.2837227 29.0232352,26.286976 29.0268789,26.2895786 L29.9863283,26.9620911 C30.1328549,27.0647638 30.300983,27.1140831 30.4672893,27.1140831 C30.731974,27.1140831 30.9926246,26.9891582 31.1559379,26.7557047 C31.4220541,26.3753343 31.3295315,25.8511702 30.9498118,25.5847938" id="Fill-19"></path>
  </g>
</svg>
