<svg xmlns="http://www.w3.org/2000/svg" width="800" height="600" viewBox="80 110 620 355"><path fill="none" stroke="#717274" stroke-width="7" stroke-linecap="round" stroke-miterlimit="10" d="M536.39 185.5c-19.976-9.045-43.517-7.538-64.623.377-7.11-29.775-23.7-54.35-61.798-64.068-34.93-8.91-73.184 12.213-87.1 32.785-17.323-16.547-42.322-36.167-84.22-23.645-53.496 16.587-60.11 61.334-55.98 82.96-56.143-1.273-90.955 44.242-89.548 87.847 1.446 44.595 39.798 77.706 86.692 79.044"/><path fill="#717274" d="M355.082 256.446c0 1.073-.87 1.942-1.94 1.942H336.11c-1.07 0-1.94-.87-1.94-1.942v-17.028c0-1.073.87-1.942 1.94-1.942h17.032c1.07 0 1.94.87 1.94 1.942v17.028zM250.796 339.055H230.89v-10.382h-.445c-5.308 8.362-14.45 12.4-23.297 12.4-22.267 0-27.87-12.256-27.87-30.716v-45.855h20.94v42.107c0 12.254 3.687 18.312 13.42 18.312 11.35 0 16.22-6.2 16.22-21.34V264.5h20.938v74.553zM257.1 264.502h19.907v10.383h.44c5.31-8.366 14.452-12.402 23.302-12.402 22.263 0 27.868 12.257 27.868 30.716v45.855h-20.94V296.95c0-12.26-3.685-18.317-13.417-18.317-11.354 0-16.22 6.203-16.22 21.344v39.08h-20.938V264.5zM334.143 264.502h20.94v74.552h-20.94v-74.552z"/><path fill="#EA2229" d="M455.112 348.434V264.51h-93.166v102.96H385.1v-42.538h37.33l4.073-17.594H385.1v-23.795h41.403l5.46-10.977v94.904h51.625l7.174-19.036"/><path fill="#EA2229" d="M525.457 262.06c32.588 0 51.76 23.79 51.76 54.362 0 29.704-19.172 53.498-51.76 53.498-32.59 0-51.757-23.794-51.757-53.498 0-30.57 19.167-54.363 51.757-54.363zm0 88.827c20.795 0 28.61-17.307 28.61-34.465 0-18.025-7.815-35.33-28.61-35.33-20.79 0-28.605 17.305-28.605 35.33 0 17.158 7.814 34.465 28.605 34.465zM679.537 367.47h-23.004l-17.84-70.08h-.296l-17.546 70.08h-23.446l-27.87-102.96h23.153l16.663 70.085h.29l18.287-70.085h21.677l17.992 70.947h.29l17.256-70.947h22.708l-28.313 102.96z"/><g fill="#717274"><path d="M456.313 409.803c6.663 0 12.186 2.412 16.566 7.234 3.98 4.4 5.972 9.607 5.972 15.622 0 6.042-2.104 11.322-6.312 15.84-4.208 4.52-9.617 6.778-16.228 6.778-6.637 0-12.06-2.26-16.267-6.778-4.208-4.518-6.312-9.798-6.312-15.84 0-5.99 1.99-11.184 5.973-15.583 4.382-4.85 9.918-7.274 16.607-7.274zm-.02 5.446c-4.626 0-8.603 1.708-11.927 5.127-3.324 3.418-4.986 7.553-4.986 12.402 0 3.126.758 6.04 2.273 8.744s3.563 4.79 6.144 6.26 5.412 2.207 8.497 2.207c3.084 0 5.917-.734 8.497-2.205 2.58-1.47 4.628-3.558 6.145-6.26 1.515-2.704 2.273-5.62 2.273-8.746 0-4.85-1.67-8.985-5.007-12.403-3.337-3.42-7.305-5.128-11.906-5.128zM491.924 410.916h5.565v7.75c2.225-2.967 4.69-5.187 7.393-6.657s5.645-2.207 8.825-2.207c3.232 0 6.102.82 8.605 2.465 2.505 1.644 4.353 3.855 5.546 6.638 1.19 2.783 1.787 7.116 1.787 13v22.26h-5.564v-20.63c0-4.983-.207-8.31-.62-9.98-.645-2.86-1.882-5.014-3.71-6.46-1.83-1.442-4.214-2.165-7.156-2.165-3.366 0-6.382 1.114-9.045 3.34-2.664 2.227-4.42 4.982-5.268 8.27-.53 2.145-.795 6.067-.795 11.766v15.86h-5.566v-43.25zM544.313 394.22h5.565v59.945h-5.565V394.22zM564.543 410.916h5.565v43.25h-5.565v-43.25zM585.16 410.916h5.565v7.75c2.226-2.967 4.69-5.187 7.394-6.657s5.644-2.207 8.824-2.207c3.232 0 6.102.82 8.605 2.465 2.504 1.644 4.352 3.855 5.545 6.638 1.192 2.783 1.788 7.116 1.788 13v22.26h-5.564v-20.63c0-4.983-.208-8.31-.62-9.98-.646-2.86-1.883-5.014-3.71-6.46-1.83-1.442-4.215-2.165-7.157-2.165-3.366 0-6.382 1.114-9.045 3.34-2.664 2.227-4.42 4.982-5.268 8.27-.53 2.145-.795 6.067-.795 11.766v15.86h-5.565v-43.25zM673.933 439.814l4.69 2.465c-1.538 3.02-3.315 5.46-5.33 7.313-2.018 1.855-4.285 3.267-6.805 4.233-2.52.967-5.372 1.45-8.555 1.45-7.056 0-12.572-2.312-16.552-6.936-3.978-4.624-5.967-9.852-5.967-15.683 0-5.485 1.684-10.375 5.053-14.668 4.27-5.46 9.986-8.19 17.148-8.19 7.373 0 13.262 2.797 17.665 8.39 3.128 3.948 4.72 8.877 4.773 14.786h-38.917c.105 5.023 1.71 9.142 4.815 12.354 3.105 3.212 6.94 4.818 11.504 4.818 2.2 0 4.344-.383 6.427-1.148s3.855-1.782 5.314-3.05c1.46-1.264 3.04-3.31 4.74-6.136zm0-11.646c-.743-2.968-1.824-5.34-3.244-7.115s-3.298-3.207-5.633-4.294c-2.335-1.087-4.79-1.63-7.362-1.63-4.246 0-7.895 1.364-10.945 4.094-2.23 1.987-3.914 4.97-5.055 8.944h32.238zM570.134 399.21c0 .282-.228.51-.51.51h-4.48c-.282 0-.51-.228-.51-.51v-4.48c0-.282.228-.51.51-.51h4.48c.282 0 .51.228.51.51v4.48z"/></g></svg>