<?xml version="1.0" encoding="UTF-8"?>
<svg id="Layer_1" data-name="Layer 1" xmlns="http://www.w3.org/2000/svg" viewBox="0 0 331.09 111.97">
  <defs>
    <style>
      .cls-1 {
        fill: #019966;
      }

      .cls-2 {
        fill: #243269;
      }
    </style>
  </defs>
  <g>
    <g>
      <path class="cls-2" d="M0,.26h9.97v13.46h12.8V.26h9.97v35.97h-9.97v-13.67h-12.8v13.67H0V.26Z"/>
      <path class="cls-2" d="M39.36.26h28.93v8.48h-19.07v5.45h17.27v7.86h-17.27v5.7h19.32v8.48h-29.19V.26Z"/>
      <path class="cls-2" d="M86.25,0h9.61l15.31,36.23h-10.69l-2.62-6.42h-13.88l-2.57,6.42h-10.48L86.25,0ZM94.98,22.05l-4.01-10.23-4.06,10.23h8.07Z"/>
      <path class="cls-2" d="M114.18.26h17.01c5.5,0,9.3,1.44,11.72,3.91,2.11,2.06,3.19,4.83,3.19,8.38v.1c0,5.5-2.93,9.15-7.4,11.05l8.58,12.54h-11.51l-7.25-10.9h-4.37v10.9h-9.97V.26ZM130.73,17.52c3.39,0,5.35-1.64,5.35-4.27v-.1c0-2.83-2.06-4.27-5.4-4.27h-6.53v8.63h6.58Z"/>
      <path class="cls-2" d="M159.51,8.99h-10.79V.26h31.55v8.74h-10.79v27.24h-9.97V8.99Z"/>
      <path class="cls-2" d="M183.65.26h9.97v27.24h17.42v8.74h-27.39V.26Z"/>
      <path class="cls-2" d="M228.35,0h9.61l15.31,36.23h-10.69l-2.62-6.42h-13.88l-2.57,6.42h-10.48L228.35,0ZM237.09,22.05l-4.01-10.23-4.06,10.23h8.07Z"/>
      <path class="cls-2" d="M256.29.26h9.3l14.8,19.02V.26h9.87v35.97h-8.74l-15.37-19.73v19.73h-9.87V.26Z"/>
      <path class="cls-2" d="M296.91.26h13.88c12.85,0,20.3,7.4,20.3,17.78v.1c0,10.38-7.55,18.09-20.5,18.09h-13.67V.26ZM310.94,27.39c5.96,0,9.92-3.29,9.92-9.1v-.1c0-5.76-3.96-9.1-9.92-9.1h-4.06v18.3h4.06Z"/>
    </g>
    <g>
      <path class="cls-2" d="M.45,45.75h28.78v8.74H10.42v6.12h17.01v8.27H10.42v12.85H.45v-35.97Z"/>
      <path class="cls-2" d="M31.43,63.84v-.1c0-10.33,8.33-18.71,19.43-18.71s19.32,8.27,19.32,18.6v.1c0,10.33-8.33,18.71-19.43,18.71s-19.32-8.27-19.32-18.6ZM60,63.84v-.1c0-5.19-3.75-9.71-9.25-9.71s-9.1,4.42-9.1,9.61v.1c0,5.19,3.75,9.71,9.2,9.71s9.15-4.42,9.15-9.61Z"/>
      <path class="cls-2" d="M75.07,45.75h17.01c5.5,0,9.3,1.44,11.72,3.91,2.11,2.06,3.19,4.83,3.19,8.38v.1c0,5.5-2.93,9.15-7.4,11.05l8.58,12.54h-11.51l-7.25-10.9h-4.37v10.9h-9.97v-35.97ZM91.62,63.02c3.39,0,5.34-1.64,5.34-4.27v-.1c0-2.83-2.06-4.27-5.4-4.27h-6.53v8.63h6.58Z"/>
      <path class="cls-2" d="M109.76,45.75h10.54l6.27,20.81,6.94-20.92h8.58l6.94,20.92,6.27-20.81h10.33l-12.03,36.23h-8.68l-7.25-20.71-7.19,20.71h-8.69l-12.03-36.23Z"/>
      <path class="cls-2" d="M175.65,45.5h9.61l15.31,36.23h-10.69l-2.62-6.42h-13.88l-2.57,6.42h-10.48l15.31-36.23ZM184.39,67.54l-4.01-10.23-4.06,10.23h8.07Z"/>
      <path class="cls-2" d="M203.58,45.75h17.01c5.5,0,9.3,1.44,11.72,3.91,2.11,2.06,3.19,4.83,3.19,8.38v.1c0,5.5-2.93,9.15-7.4,11.05l8.58,12.54h-11.51l-7.25-10.9h-4.37v10.9h-9.97v-35.97ZM220.13,63.02c3.39,0,5.35-1.64,5.35-4.27v-.1c0-2.83-2.06-4.27-5.4-4.27h-6.53v8.63h6.58Z"/>
      <path class="cls-2" d="M240.55,45.75h13.88c12.85,0,20.3,7.4,20.3,17.78v.1c0,10.38-7.56,18.09-20.51,18.09h-13.67v-35.97ZM254.58,72.89c5.96,0,9.92-3.29,9.92-9.1v-.1c0-5.76-3.96-9.1-9.92-9.1h-4.06v18.3h4.06Z"/>
    </g>
  </g>
  <g>
    <path class="cls-1" d="M5.63,99.4L.45,111.06h2.76l1.04-2.5h5.4l1.04,2.5h2.83l-5.23-11.65h-2.66ZM5.11,106.51l1.85-4.44,1.85,4.44h-3.69Z"/>
    <polygon class="cls-1" points="25.43 101.6 29.16 101.6 29.16 111.06 31.85 111.06 31.85 101.6 35.58 101.6 35.58 99.4 25.43 99.4 25.43 101.6"/>
    <polygon class="cls-1" points="48.67 104 43.39 104 43.39 99.4 40.68 99.4 40.68 111.06 43.39 111.06 43.39 106.28 48.67 106.28 48.67 111.06 51.37 111.06 51.37 99.4 48.67 99.4 48.67 104"/>
    <rect class="cls-1" x="57.78" y="99.4" width="2.71" height="11.65"/>
    <polygon class="cls-1" points="74.91 106.47 69.12 99.4 66.88 99.4 66.88 111.06 69.55 111.06 69.55 103.98 75.34 111.06 77.57 111.06 77.57 99.4 74.91 99.4 74.91 106.47"/>
    <polygon class="cls-1" points="94.82 99.4 91.82 99.4 86.66 104.84 86.66 99.4 83.98 99.4 83.98 111.06 86.66 111.06 86.66 108.1 88.21 106.48 91.96 111.06 95.12 111.06 90 104.6 94.82 99.4"/>
    <rect class="cls-1" x="99.43" y="105.33" width="4.71" height="2.08"/>
    <path class="cls-1" d="M113.67,99.4l-5.18,11.65h2.76l1.04-2.5h5.4l1.04,2.5h2.83l-5.23-11.65h-2.66ZM113.14,106.51l1.85-4.44,1.85,4.44h-3.69Z"/>
    <polygon class="cls-1" points="134.44 106.47 128.65 99.4 126.42 99.4 126.42 111.06 129.08 111.06 129.08 103.98 134.88 111.06 137.11 111.06 137.11 99.4 134.44 99.4 134.44 106.47"/>
    <path class="cls-1" d="M152.16,100.13c-.97-.48-2.08-.72-3.35-.72h-5.29v11.65h5.29c1.26,0,2.38-.24,3.35-.72.97-.48,1.72-1.16,2.26-2.03.54-.87.81-1.89.81-3.07s-.27-2.2-.81-3.07c-.55-.87-1.3-1.55-2.26-2.03ZM152.04,107.15c-.32.55-.76.97-1.33,1.27-.57.29-1.25.44-2.02.44h-2.45v-7.26h2.45c.78,0,1.45.15,2.02.44.57.29,1.02.71,1.33,1.26s.47,1.19.47,1.93-.16,1.37-.47,1.92Z"/>
    <rect class="cls-1" x="160.4" y="105.33" width="4.71" height="2.08"/>
    <path class="cls-1" d="M179.63,100.13c-.97-.48-2.08-.72-3.35-.72h-5.29v11.65h5.29c1.26,0,2.38-.24,3.35-.72.97-.48,1.72-1.16,2.26-2.03.54-.87.81-1.89.81-3.07s-.27-2.2-.81-3.07c-.55-.87-1.3-1.55-2.26-2.03ZM179.51,107.15c-.32.55-.76.97-1.33,1.27-.57.29-1.25.44-2.02.44h-2.45v-7.26h2.45c.78,0,1.45.15,2.02.44.57.29,1.02.71,1.33,1.26s.47,1.19.47,1.93-.16,1.37-.47,1.92Z"/>
    <path class="cls-1" d="M198.59,100.9c-.58-.54-1.25-.96-2.02-1.26s-1.62-.44-2.54-.44-1.77.15-2.54.45c-.77.3-1.44.72-2.02,1.27-.58.54-1.02,1.18-1.34,1.9-.32.73-.48,1.53-.48,2.41s.16,1.66.48,2.4c.31.73.76,1.37,1.34,1.91.58.55,1.25.97,2.03,1.27.78.3,1.63.45,2.55.45s1.75-.15,2.52-.44c.77-.29,1.45-.71,2.02-1.26.58-.54,1.02-1.19,1.34-1.92.32-.74.47-1.54.47-2.41s-.16-1.68-.47-2.41c-.32-.73-.76-1.37-1.34-1.92ZM197.4,106.74c-.18.45-.44.84-.77,1.18s-.72.6-1.16.78c-.44.18-.92.28-1.44.28s-1.01-.09-1.45-.28c-.44-.18-.83-.44-1.16-.78s-.58-.73-.77-1.18-.28-.95-.28-1.51.09-1.06.28-1.51.44-.84.77-1.18.71-.6,1.16-.78c.44-.18.93-.28,1.45-.28s1,.09,1.44.28c.44.18.83.44,1.16.78s.59.73.77,1.18c.18.45.28.95.28,1.51s-.09,1.06-.28,1.51Z"/>
    <rect class="cls-1" x="205.57" y="105.33" width="4.71" height="2.08"/>
    <polygon class="cls-1" points="214.84 101.6 218.57 101.6 218.57 111.06 221.27 111.06 221.27 101.6 225 101.6 225 99.4 214.84 99.4 214.84 101.6"/>
    <path class="cls-1" d="M233.74,99.4l-5.18,11.65h2.76l1.04-2.5h5.4l1.04,2.5h2.83l-5.23-11.65h-2.66ZM233.22,106.51l1.85-4.44,1.85,4.44h-3.69Z"/>
    <polygon class="cls-1" points="254.52 106.47 248.72 99.4 246.49 99.4 246.49 111.06 249.16 111.06 249.16 103.98 254.95 111.06 257.18 111.06 257.18 99.4 254.52 99.4 254.52 106.47"/>
    <polygon class="cls-1" points="271.57 111.06 274.73 111.06 269.61 104.6 274.43 99.4 271.43 99.4 266.27 104.84 266.27 99.4 263.59 99.4 263.59 111.06 266.27 111.06 266.27 108.1 267.82 106.48 271.57 111.06"/>
  </g>
</svg>